<?xml-stylesheet type="css" href="style.css"?>
<svg   id="more-arrow"  width="23" height="23" viewBox="0 0 23 23" fill="none" xmlns="http://www.w3.org/2000/svg">
<path fill-rule="evenodd" clip-rule="evenodd" d="M3.30176 11.2918C3.30176 10.8146 3.68855 10.4279 4.16568 10.4279H17.9884C18.4655 10.4279 18.8523 10.8146 18.8523 11.2918C18.8523 11.7689 18.4655 12.1557 17.9884 12.1557H4.16568C3.68855 12.1557 3.30176 11.7689 3.30176 11.2918Z" fill="#3787e9"/>
<path fill-rule="evenodd" clip-rule="evenodd" d="M12.3071 5.56779C12.6445 5.23041 13.1915 5.23041 13.5289 5.56779L18.5965 10.6354C18.9339 10.9728 18.9339 11.5198 18.5965 11.8572C18.2591 12.1946 17.7121 12.1946 17.3747 11.8572L12.3071 6.78956C11.9697 6.45218 11.9697 5.90517 12.3071 5.56779Z" fill="#3787e9"/>
<path fill-rule="evenodd" clip-rule="evenodd" d="M18.5967 10.6528C18.2593 10.3154 17.7123 10.3154 17.375 10.6528L12.3073 15.7204C11.9699 16.0578 11.9699 16.6048 12.3073 16.9422C12.6447 17.2796 13.1917 17.2796 13.5291 16.9422L18.5967 11.8745C18.9341 11.5371 18.9341 10.9901 18.5967 10.6528Z" fill="#3787e9"/>
</svg>
