<svg width="24" height="24" viewBox="0 0 24 24" fill="none" xmlns="http://www.w3.org/2000/svg">
<path d="M15.604 2.70215C18.9555 3.56066 21.453 6.36376 21.9207 9.79174C22.3883 13.2197 20.733 16.5894 17.7339 18.3143V22.2883" stroke="#7996B9" stroke-width="1.5" stroke-linecap="round" stroke-linejoin="round"/>
<path fill-rule="evenodd" clip-rule="evenodd" d="M13.475 14.4831C15.4346 14.4831 17.0232 12.8945 17.0232 10.9349C17.0232 8.97531 15.4346 7.38672 13.475 7.38672C11.5153 7.38672 9.92676 8.97531 9.92676 10.9349C9.92676 12.8945 11.5153 14.4831 13.475 14.4831Z" stroke="#7996B9" stroke-width="1.5" stroke-linecap="round" stroke-linejoin="round"/>
<path d="M11.3462 8.09641V1.70964C11.3462 1.31772 11.6639 1 12.0558 1H14.8944C15.2863 1 15.604 1.31772 15.604 1.70964V8.09641" stroke="#7996B9" stroke-width="1.5" stroke-linecap="round" stroke-linejoin="round"/>
<path d="M4.96033 15.2033L4.0747 14.9819C3.62706 14.8699 3.26183 14.5472 3.09546 14.1168C2.92909 13.6864 2.98236 13.202 3.23827 12.818L4.96033 10.2358V9.52619C4.96033 6.1748 7.674 3.36556 11.3462 2.61902" stroke="#7996B9" stroke-width="1.5" stroke-linecap="round" stroke-linejoin="round"/>
<path d="M9.21825 22.2892V20.1707L8.26544 20.3287C7.87393 20.3951 7.47282 20.378 7.08838 20.2785" stroke="#7996B9" stroke-width="1.5" stroke-linecap="round" stroke-linejoin="round"/>
<path d="M13.4752 10.9349C13.4752 14.8542 10.298 18.0314 6.37876 18.0314H4.95947" stroke="#7996B9" stroke-width="1.5" stroke-linecap="round" stroke-linejoin="round"/>
</svg>
