<svg width="23" height="23" viewBox="0 0 23 23" fill="none" xmlns="http://www.w3.org/2000/svg">
<path fill-rule="evenodd" clip-rule="evenodd" d="M15.9428 8.65328C16.2802 8.99066 16.2802 9.53766 15.9428 9.87504L11.8752 13.9427C11.5378 14.2801 10.9908 14.2801 10.6534 13.9427C10.316 13.6053 10.316 13.0583 10.6534 12.7209L14.7211 8.65328C15.0584 8.3159 15.6054 8.3159 15.9428 8.65328Z" fill="#7996B9"/>
<path fill-rule="evenodd" clip-rule="evenodd" d="M11.8579 13.9429C12.1952 13.6055 12.1952 13.0585 11.8579 12.7211L7.79021 8.65349C7.45283 8.31611 6.90583 8.31611 6.56845 8.65349C6.23107 8.99087 6.23107 9.53788 6.56845 9.87526L10.6361 13.9429C10.9735 14.2803 11.5205 14.2803 11.8579 13.9429Z" fill="#7996B9"/>
</svg>
