<svg width="23" height="23" viewBox="0 0 23 23" fill="none" xmlns="http://www.w3.org/2000/svg">
<path fill-rule="evenodd" clip-rule="evenodd" d="M8.6108 6.61088C8.94818 6.2735 9.49518 6.2735 9.83256 6.61088L13.9002 10.6785C14.2376 11.0159 14.2376 11.5629 13.9002 11.9003C13.5628 12.2377 13.0158 12.2377 12.6785 11.9003L8.6108 7.83265C8.27342 7.49527 8.27342 6.94826 8.6108 6.61088Z" fill="#7996B9"/>
<path fill-rule="evenodd" clip-rule="evenodd" d="M13.9004 10.6958C13.5631 10.3585 13.016 10.3585 12.6787 10.6958L8.61101 14.7635C8.27363 15.1009 8.27363 15.6479 8.61101 15.9853C8.94839 16.3226 9.4954 16.3226 9.83278 15.9853L13.9004 11.9176C14.2378 11.5802 14.2378 11.0332 13.9004 10.6958Z" fill="#7996B9"/>
</svg>
