<svg xmlns="http://www.w3.org/2000/svg" xmlns:xlink="http://www.w3.org/1999/xlink" xml:space="preserve" version="1.1" style="shape-rendering:geometricPrecision;text-rendering:geometricPrecision;image-rendering:optimizeQuality;" viewBox="0 0 847 1058.75" x="0px" y="0px" fill-rule="evenodd" clip-rule="evenodd"><defs></defs><g><path class="fil0" d="M101 101c104,-104 274,-104 378,0 93,94 104,242 26,347l306 306c38,38 -19,95 -57,57l-306 -306c-106,78 -253,67 -347,-26 -104,-104 -104,-274 0,-378zm34 34c-85,86 -85,224 0,309 86,86 224,86 309,0 86,-85 86,-223 0,-309 -85,-85 -223,-85 -309,0z"/></g></svg>