<svg style="display:none">


<symbol   id="more-arrow"  width="23" height="23" viewBox="0 0 23 23" xmlns="http://www.w3.org/2000/svg">
<path fill-rule="evenodd" clip-rule="evenodd" d="M3.30176 11.2918C3.30176 10.8146 3.68855 10.4279 4.16568 10.4279H17.9884C18.4655 10.4279 18.8523 10.8146 18.8523 11.2918C18.8523 11.7689 18.4655 12.1557 17.9884 12.1557H4.16568C3.68855 12.1557 3.30176 11.7689 3.30176 11.2918Z" />
<path fill-rule="evenodd" clip-rule="evenodd" d="M12.3071 5.56779C12.6445 5.23041 13.1915 5.23041 13.5289 5.56779L18.5965 10.6354C18.9339 10.9728 18.9339 11.5198 18.5965 11.8572C18.2591 12.1946 17.7121 12.1946 17.3747 11.8572L12.3071 6.78956C11.9697 6.45218 11.9697 5.90517 12.3071 5.56779Z"/>
<path fill-rule="evenodd" clip-rule="evenodd" d="M18.5967 10.6528C18.2593 10.3154 17.7123 10.3154 17.375 10.6528L12.3073 15.7204C11.9699 16.0578 11.9699 16.6048 12.3073 16.9422C12.6447 17.2796 13.1917 17.2796 13.5291 16.9422L18.5967 11.8745C18.9341 11.5371 18.9341 10.9901 18.5967 10.6528Z" />
</symbol>

<symbol   id="more-arrow-white"  width="23" height="23" viewBox="0 0 23 23"  xmlns="http://www.w3.org/2000/svg">
<path fill-rule="evenodd" clip-rule="evenodd" d="M3.30176 11.2918C3.30176 10.8146 3.68855 10.4279 4.16568 10.4279H17.9884C18.4655 10.4279 18.8523 10.8146 18.8523 11.2918C18.8523 11.7689 18.4655 12.1557 17.9884 12.1557H4.16568C3.68855 12.1557 3.30176 11.7689 3.30176 11.2918Z" />
<path fill-rule="evenodd" clip-rule="evenodd" d="M12.3071 5.56779C12.6445 5.23041 13.1915 5.23041 13.5289 5.56779L18.5965 10.6354C18.9339 10.9728 18.9339 11.5198 18.5965 11.8572C18.2591 12.1946 17.7121 12.1946 17.3747 11.8572L12.3071 6.78956C11.9697 6.45218 11.9697 5.90517 12.3071 5.56779Z" />
<path fill-rule="evenodd" clip-rule="evenodd" d="M18.5967 10.6528C18.2593 10.3154 17.7123 10.3154 17.375 10.6528L12.3073 15.7204C11.9699 16.0578 11.9699 16.6048 12.3073 16.9422C12.6447 17.2796 13.1917 17.2796 13.5291 16.9422L18.5967 11.8745C18.9341 11.5371 18.9341 10.9901 18.5967 10.6528Z" />
</symbol>

<symbol id="util-icon" width="24" height="25" viewBox="0 0 24 25" fill="none" xmlns="http://www.w3.org/2000/svg">
<path fill-rule="evenodd" clip-rule="evenodd" d="M0.75 7C0.75 6.17157 1.42157 5.5 2.25 5.5H21.75C22.5784 5.5 23.25 6.17157 23.25 7V19C23.25 19.8284 22.5784 20.5 21.75 20.5H2.25C1.42157 20.5 0.75 19.8284 0.75 19V7Z" stroke="#7996B9" stroke-width="1.5" stroke-linecap="round" stroke-linejoin="round"/>
<path d="M16.5 5.5C16.5 3.01472 14.4853 1 12 1C9.51472 1 7.5 3.01472 7.5 5.5" stroke="#7996B9" stroke-width="1.5" stroke-linecap="round" stroke-linejoin="round"/>
<path d="M0.75 11.5H10.5" stroke="#7996B9" stroke-width="1.5" stroke-linecap="round" stroke-linejoin="round"/>
<path d="M13.5 11.5H23.25" stroke="#7996B9" stroke-width="1.5" stroke-linecap="round" stroke-linejoin="round"/>
<path fill-rule="evenodd" clip-rule="evenodd" d="M12 13.749C11.1716 13.749 10.5 13.0775 10.5 12.249V10.749C10.5 9.9206 11.1716 9.24902 12 9.24902C12.8284 9.24902 13.5 9.9206 13.5 10.749V12.249C13.5 13.0775 12.8284 13.749 12 13.749Z" stroke="#7996B9" stroke-width="1.5" stroke-linecap="round" stroke-linejoin="round"/>
</symbol>

<symbol id="gears-icon" width="25" height="25" viewBox="0 0 25 25" fill="none" xmlns="http://www.w3.org/2000/svg">
<path fill-rule="evenodd" clip-rule="evenodd" d="M5.97531 12.1509C6.17361 12.37 6.45531 12.495 6.75081 12.495C7.0463 12.495 7.32801 12.37 7.52631 12.1509L8.02631 11.5949C8.3227 11.2669 8.79343 11.1609 9.20183 11.3302C9.61022 11.4995 9.8679 11.9074 9.84531 12.3489L9.80631 13.0959C9.79057 13.3922 9.9014 13.6812 10.1112 13.891C10.321 14.1008 10.61 14.2117 10.9063 14.1959L11.6533 14.1579C12.0948 14.1353 12.5028 14.393 12.6721 14.8014C12.8414 15.2098 12.7353 15.6805 12.4073 15.9769L11.8513 16.4769C11.6322 16.6752 11.5072 16.9569 11.5072 17.2524C11.5072 17.5479 11.6322 17.8296 11.8513 18.0279L12.4073 18.5279C12.7353 18.8243 12.8414 19.2951 12.6721 19.7035C12.5028 20.1118 12.0948 20.3695 11.6533 20.3469L10.9063 20.3079C10.61 20.2922 10.321 20.403 10.1112 20.6128C9.9014 20.8226 9.79057 21.1117 9.80631 21.4079L9.84531 22.1549C9.8679 22.5964 9.61022 23.0044 9.20183 23.1737C8.79343 23.343 8.3227 23.237 8.02631 22.9089L7.52631 22.3529C7.32801 22.1339 7.0463 22.0089 6.75081 22.0089C6.45531 22.0089 6.17361 22.1339 5.97531 22.3529L5.47531 22.9089C5.17892 23.237 4.70819 23.343 4.29979 23.1737C3.8914 23.0044 3.63372 22.5964 3.65631 22.1549L3.69431 21.4079C3.71004 21.1117 3.59921 20.8226 3.38941 20.6128C3.17962 20.403 2.89059 20.2922 2.59431 20.3079L1.84731 20.3469C1.4071 20.3663 1.00202 20.1075 0.83463 19.6999C0.667241 19.2923 0.773515 18.8235 1.10031 18.5279L1.65631 18.0279C1.87539 17.8296 2.00037 17.5479 2.00037 17.2524C2.00037 16.9569 1.87539 16.6752 1.65631 16.4769L1.10031 15.9769C0.772288 15.6805 0.666267 15.2098 0.835552 14.8014C1.00484 14.393 1.4128 14.1353 1.85431 14.1579L2.60131 14.1959C2.89759 14.2117 3.18662 14.1008 3.39641 13.891C3.60621 13.6812 3.71704 13.3922 3.70131 13.0959L3.66331 12.3489C3.64701 11.9121 3.90428 11.5114 4.3082 11.3443C4.71211 11.1773 5.17732 11.2792 5.47431 11.5999L5.97531 12.1509Z" stroke="#7996B9" stroke-width="1.5" stroke-linecap="round" stroke-linejoin="round"/>
<path fill-rule="evenodd" clip-rule="evenodd" d="M6.75098 18.751C7.5794 18.751 8.25098 18.0794 8.25098 17.251C8.25098 16.4225 7.5794 15.751 6.75098 15.751C5.92255 15.751 5.25098 16.4225 5.25098 17.251C5.25098 18.0794 5.92255 18.751 6.75098 18.751Z" stroke="#7996B9" stroke-width="1.5" stroke-linecap="round" stroke-linejoin="round"/>
<path fill-rule="evenodd" clip-rule="evenodd" d="M16.4753 1.65094C16.6736 1.87002 16.9553 1.995 17.2508 1.995C17.5463 1.995 17.828 1.87002 18.0263 1.65094L18.5263 1.09494C18.8227 0.766917 19.2934 0.660896 19.7018 0.830181C20.1102 0.999466 20.3679 1.40743 20.3453 1.84894L20.3063 2.59594C20.2906 2.89222 20.4014 3.18124 20.6112 3.39104C20.821 3.60084 21.11 3.71167 21.4063 3.69594L22.1533 3.65794C22.5948 3.63534 23.0028 3.89303 23.1721 4.30142C23.3414 4.70982 23.2353 5.18055 22.9073 5.47694L22.3513 5.97694C22.1322 6.17523 22.0072 6.45694 22.0072 6.75244C22.0072 7.04793 22.1322 7.32964 22.3513 7.52794L22.9073 8.02794C23.2353 8.32433 23.3414 8.79506 23.1721 9.20345C23.0028 9.61185 22.5948 9.86953 22.1533 9.84694L21.4063 9.80794C21.11 9.7922 20.821 9.90303 20.6112 10.1128C20.4014 10.3226 20.2906 10.6117 20.3063 10.9079L20.3453 11.6549C20.3679 12.0964 20.1102 12.5044 19.7018 12.6737C19.2934 12.843 18.8227 12.737 18.5263 12.4089L18.0263 11.8529C17.828 11.6339 17.5463 11.5089 17.2508 11.5089C16.9553 11.5089 16.6736 11.6339 16.4753 11.8529L15.9753 12.4089C15.6789 12.737 15.2082 12.843 14.7998 12.6737C14.3914 12.5044 14.1337 12.0964 14.1563 11.6549L14.1943 10.9079C14.21 10.6117 14.0992 10.3226 13.8894 10.1128C13.6796 9.90303 13.3906 9.7922 13.0943 9.80794L12.3473 9.84694C11.9071 9.86634 11.502 9.60753 11.3346 9.19993C11.1672 8.79232 11.2735 8.32352 11.6003 8.02794L12.1563 7.52794C12.3754 7.32964 12.5004 7.04793 12.5004 6.75244C12.5004 6.45694 12.3754 6.17523 12.1563 5.97694L11.6003 5.47694C11.2723 5.18055 11.1663 4.70982 11.3356 4.30142C11.5048 3.89303 11.9128 3.63534 12.3543 3.65794L13.1013 3.69594C13.3976 3.71167 13.6866 3.60084 13.8964 3.39104C14.1062 3.18124 14.217 2.89222 14.2013 2.59594L14.1633 1.84894C14.147 1.41215 14.4043 1.01136 14.8082 0.844307C15.2121 0.677256 15.6773 0.779237 15.9743 1.09994L16.4753 1.65094Z" stroke="#7996B9" stroke-width="1.5" stroke-linecap="round" stroke-linejoin="round"/>
<path fill-rule="evenodd" clip-rule="evenodd" d="M17.251 8.25098C18.0794 8.25098 18.751 7.5794 18.751 6.75098C18.751 5.92255 18.0794 5.25098 17.251 5.25098C16.4225 5.25098 15.751 5.92255 15.751 6.75098C15.751 7.5794 16.4225 8.25098 17.251 8.25098Z" stroke="#7996B9" stroke-width="1.5" stroke-linecap="round" stroke-linejoin="round"/>
</symbol>


<symbol id="desk-icon" width="24" height="24" viewBox="0 0 24 24" fill="none" xmlns="http://www.w3.org/2000/svg">
<path d="M13.5 18.28C13.5854 19.8235 14.1037 21.3161 15 22.6H9C9.89635 21.3161 10.4146 19.8235 10.5 18.28" stroke="#7996B9" stroke-width="1.5" stroke-linecap="round" stroke-linejoin="round"/>
<path d="M6.75 22.6001H17.25" stroke="#7996B9" stroke-width="1.5" stroke-linecap="round" stroke-linejoin="round"/>
<path d="M0.75 13.96H23.25" stroke="#7996B9" stroke-width="1.5" stroke-linecap="round" stroke-linejoin="round"/>
<path fill-rule="evenodd" clip-rule="evenodd" d="M0.75 2.5C0.75 1.67157 1.42157 1 2.25 1H21.75C22.5784 1 23.25 1.67157 23.25 2.5V16.78C23.25 17.6084 22.5784 18.28 21.75 18.28H2.25C1.42157 18.28 0.75 17.6084 0.75 16.78V2.5Z" stroke="#7996B9" stroke-width="1.5" stroke-linecap="round" stroke-linejoin="round"/>
<path d="M17.956 4.61548L12 11.0801L8.25 7.49548" stroke="#7996B9" stroke-width="1.5" stroke-linecap="round" stroke-linejoin="round"/>
</symbol>


<symbol id="contact-icon" width="24" height="24" viewBox="0 0 24 24"  xmlns="http://www.w3.org/2000/svg">
<path d="M15.604 2.70215C18.9555 3.56066 21.453 6.36376 21.9207 9.79174C22.3883 13.2197 20.733 16.5894 17.7339 18.3143V22.2883" stroke-width="1.5" stroke-linecap="round" stroke-linejoin="round"/>
<path fill-rule="evenodd" clip-rule="evenodd" d="M13.475 14.4831C15.4346 14.4831 17.0232 12.8945 17.0232 10.9349C17.0232 8.97531 15.4346 7.38672 13.475 7.38672C11.5153 7.38672 9.92676 8.97531 9.92676 10.9349C9.92676 12.8945 11.5153 14.4831 13.475 14.4831Z"  stroke-width="1.5" stroke-linecap="round" stroke-linejoin="round"/>
<path d="M11.3462 8.09641V1.70964C11.3462 1.31772 11.6639 1 12.0558 1H14.8944C15.2863 1 15.604 1.31772 15.604 1.70964V8.09641" stroke-width="1.5" stroke-linecap="round" stroke-linejoin="round"/>
<path d="M4.96033 15.2033L4.0747 14.9819C3.62706 14.8699 3.26183 14.5472 3.09546 14.1168C2.92909 13.6864 2.98236 13.202 3.23827 12.818L4.96033 10.2358V9.52619C4.96033 6.1748 7.674 3.36556 11.3462 2.61902"  stroke-width="1.5" stroke-linecap="round" stroke-linejoin="round"/>
<path d="M9.21825 22.2892V20.1707L8.26544 20.3287C7.87393 20.3951 7.47282 20.378 7.08838 20.2785"  stroke-width="1.5" stroke-linecap="round" stroke-linejoin="round"/>
<path d="M13.4752 10.9349C13.4752 14.8542 10.298 18.0314 6.37876 18.0314H4.95947"  stroke-width="1.5" stroke-linecap="round" stroke-linejoin="round"/>
</symbol>

<symbol id="chat-icon" width="23" height="23" viewBox="0 0 23 23" fill="none" xmlns="http://www.w3.org/2000/svg">
<path d="M14 21C13.3286 20.2046 11.6144 19.588 9.51469 18.7681C8.87533 18.5177 8.98041 16.7556 9.26358 16.4261C10.174 15.3832 10.62 13.9791 10.4898 12.5667C10.4898 10.3621 9.12912 9 7.50045 9C5.87177 9 4.51024 10.3621 4.51024 12.5667C4.3802 13.9792 4.82661 15.3833 5.73731 16.4261C6.01959 16.7556 6.12467 18.5177 5.4862 18.7681C3.38557 19.5899 1.67231 20.2046 1 21" stroke="#1563C1" stroke-width="2" stroke-linecap="round" stroke-linejoin="round"/>
<path d="M13.6 11.7273V15L16.8 11.7273H19.6C20.3732 11.7273 21 11.2389 21 10.6364V4.09091C21 3.48842 20.3732 3 19.6 3H8.4C7.6268 3 7 3.48842 7 4.09091V5.90909" stroke="#1563C1" stroke-width="2" stroke-linecap="round" stroke-linejoin="round"/>
</symbol>

<symbol id="train" width="23" height="23" viewBox="0 0 23 23" fill="none" xmlns="http://www.w3.org/2000/svg">
<path d="M11.1665 15.8334V20.5" stroke="#1563C1" stroke-width="2" stroke-linecap="round" stroke-linejoin="round"/>
<path d="M11.1667 15.8334L6.5 20.5" stroke="#1563C1" stroke-width="2" stroke-linecap="round" stroke-linejoin="round"/>
<path d="M11.1665 15.8334L15.8332 20.5" stroke="#1563C1" stroke-width="2" stroke-linecap="round" stroke-linejoin="round"/>
<path fill-rule="evenodd" clip-rule="evenodd" d="M3 4.5C3 3.67157 3.67157 3 4.5 3H17.8333C18.6618 3 19.3333 3.67157 19.3333 4.5V14.3333C19.3333 15.1618 18.6618 15.8333 17.8333 15.8333H4.5C3.67157 15.8333 3 15.1618 3 14.3333V4.5Z" stroke="#1563C1" stroke-width="2" stroke-linecap="round" stroke-linejoin="round"/>
<path d="M3 6.5H19.3333" stroke="#1563C1" stroke-width="2" stroke-linecap="round" stroke-linejoin="round"/>
</symbol>

<symbol id="download-icon" width="23" height="23" viewBox="0 0 23 23" xmlns="http://www.w3.org/2000/svg">
<path fill-rule="evenodd" clip-rule="evenodd" d="M16.2004 21C18.8514 21 21.0004 18.851 21.0004 16.2C21.0004 13.5491 18.8514 11.4 16.2004 11.4C13.5494 11.4 11.4004 13.5491 11.4004 16.2C11.4004 18.851 13.5494 21 16.2004 21Z"  stroke-width="2" stroke-linecap="round" stroke-linejoin="round"/>
<path d="M16.2002 13.8V18.6"  stroke-linecap="round" stroke-linejoin="round"/>
<path d="M16.1999 18.6L14.3999 16.8"  stroke-linecap="round" stroke-linejoin="round"/>
<path d="M16.2002 18.6L18.0002 16.8" stroke-linecap="round" stroke-linejoin="round"/>
<path d="M9 17.4H4.2C3.53726 17.4 3 16.8627 3 16.2V7.79997C3 7.13723 3.53726 6.59998 4.2 6.59998H16.2C16.8627 6.59998 17.4 7.13723 17.4 7.79997V8.99997" stroke-width="2" stroke-linecap="round" stroke-linejoin="round"/>
<path d="M17.0128 6.9176L14.756 3.5344C14.5339 3.20127 14.1604 3.00083 13.76 3H6.64001C6.2388 3.00003 5.86414 3.20056 5.64161 3.5344L3.38721 6.9176"  stroke-width="2" stroke-linecap="round" stroke-linejoin="round"/>
<path d="M10.2002 3V6.6"  stroke-width="2" stroke-linecap="round" stroke-linejoin="round"/>
</symbol>


</svg>