<svg width="23" height="23" viewBox="0 0 23 23" fill="none" xmlns="http://www.w3.org/2000/svg">
<path d="M14 21C13.3286 20.2046 11.6144 19.588 9.51469 18.7681C8.87533 18.5177 8.98041 16.7556 9.26358 16.4261C10.174 15.3832 10.62 13.9791 10.4898 12.5667C10.4898 10.3621 9.12912 9 7.50045 9C5.87177 9 4.51024 10.3621 4.51024 12.5667C4.3802 13.9792 4.82661 15.3833 5.73731 16.4261C6.01959 16.7556 6.12467 18.5177 5.4862 18.7681C3.38557 19.5899 1.67231 20.2046 1 21" stroke="#7996B9" stroke-width="2" stroke-linecap="round" stroke-linejoin="round"/>
<path d="M13.6 11.7273V15L16.8 11.7273H19.6C20.3732 11.7273 21 11.2389 21 10.6364V4.09091C21 3.48842 20.3732 3 19.6 3H8.4C7.6268 3 7 3.48842 7 4.09091V5.90909" stroke="#7996B9" stroke-width="2" stroke-linecap="round" stroke-linejoin="round"/>
</svg>
