<svg width="24" height="25" viewBox="0 0 24 25" fill="none" xmlns="http://www.w3.org/2000/svg">
<path fill-rule="evenodd" clip-rule="evenodd" d="M0.75 7C0.75 6.17157 1.42157 5.5 2.25 5.5H21.75C22.5784 5.5 23.25 6.17157 23.25 7V19C23.25 19.8284 22.5784 20.5 21.75 20.5H2.25C1.42157 20.5 0.75 19.8284 0.75 19V7Z" stroke="#7996B9" stroke-width="1.5" stroke-linecap="round" stroke-linejoin="round"/>
<path d="M16.5 5.5C16.5 3.01472 14.4853 1 12 1C9.51472 1 7.5 3.01472 7.5 5.5" stroke="#7996B9" stroke-width="1.5" stroke-linecap="round" stroke-linejoin="round"/>
<path d="M0.75 11.5H10.5" stroke="#7996B9" stroke-width="1.5" stroke-linecap="round" stroke-linejoin="round"/>
<path d="M13.5 11.5H23.25" stroke="#7996B9" stroke-width="1.5" stroke-linecap="round" stroke-linejoin="round"/>
<path fill-rule="evenodd" clip-rule="evenodd" d="M12 13.749C11.1716 13.749 10.5 13.0775 10.5 12.249V10.749C10.5 9.9206 11.1716 9.24902 12 9.24902C12.8284 9.24902 13.5 9.9206 13.5 10.749V12.249C13.5 13.0775 12.8284 13.749 12 13.749Z" stroke="#7996B9" stroke-width="1.5" stroke-linecap="round" stroke-linejoin="round"/>
</svg>
