<svg width="25" height="25" viewBox="0 0 25 25" fill="none" xmlns="http://www.w3.org/2000/svg">
<path fill-rule="evenodd" clip-rule="evenodd" d="M5.97531 12.1509C6.17361 12.37 6.45531 12.495 6.75081 12.495C7.0463 12.495 7.32801 12.37 7.52631 12.1509L8.02631 11.5949C8.3227 11.2669 8.79343 11.1609 9.20183 11.3302C9.61022 11.4995 9.8679 11.9074 9.84531 12.3489L9.80631 13.0959C9.79057 13.3922 9.9014 13.6812 10.1112 13.891C10.321 14.1008 10.61 14.2117 10.9063 14.1959L11.6533 14.1579C12.0948 14.1353 12.5028 14.393 12.6721 14.8014C12.8414 15.2098 12.7353 15.6805 12.4073 15.9769L11.8513 16.4769C11.6322 16.6752 11.5072 16.9569 11.5072 17.2524C11.5072 17.5479 11.6322 17.8296 11.8513 18.0279L12.4073 18.5279C12.7353 18.8243 12.8414 19.2951 12.6721 19.7035C12.5028 20.1118 12.0948 20.3695 11.6533 20.3469L10.9063 20.3079C10.61 20.2922 10.321 20.403 10.1112 20.6128C9.9014 20.8226 9.79057 21.1117 9.80631 21.4079L9.84531 22.1549C9.8679 22.5964 9.61022 23.0044 9.20183 23.1737C8.79343 23.343 8.3227 23.237 8.02631 22.9089L7.52631 22.3529C7.32801 22.1339 7.0463 22.0089 6.75081 22.0089C6.45531 22.0089 6.17361 22.1339 5.97531 22.3529L5.47531 22.9089C5.17892 23.237 4.70819 23.343 4.29979 23.1737C3.8914 23.0044 3.63372 22.5964 3.65631 22.1549L3.69431 21.4079C3.71004 21.1117 3.59921 20.8226 3.38941 20.6128C3.17962 20.403 2.89059 20.2922 2.59431 20.3079L1.84731 20.3469C1.4071 20.3663 1.00202 20.1075 0.83463 19.6999C0.667241 19.2923 0.773515 18.8235 1.10031 18.5279L1.65631 18.0279C1.87539 17.8296 2.00037 17.5479 2.00037 17.2524C2.00037 16.9569 1.87539 16.6752 1.65631 16.4769L1.10031 15.9769C0.772288 15.6805 0.666267 15.2098 0.835552 14.8014C1.00484 14.393 1.4128 14.1353 1.85431 14.1579L2.60131 14.1959C2.89759 14.2117 3.18662 14.1008 3.39641 13.891C3.60621 13.6812 3.71704 13.3922 3.70131 13.0959L3.66331 12.3489C3.64701 11.9121 3.90428 11.5114 4.3082 11.3443C4.71211 11.1773 5.17732 11.2792 5.47431 11.5999L5.97531 12.1509Z" stroke="#7996B9" stroke-width="1.5" stroke-linecap="round" stroke-linejoin="round"/>
<path fill-rule="evenodd" clip-rule="evenodd" d="M6.75098 18.751C7.5794 18.751 8.25098 18.0794 8.25098 17.251C8.25098 16.4225 7.5794 15.751 6.75098 15.751C5.92255 15.751 5.25098 16.4225 5.25098 17.251C5.25098 18.0794 5.92255 18.751 6.75098 18.751Z" stroke="#7996B9" stroke-width="1.5" stroke-linecap="round" stroke-linejoin="round"/>
<path fill-rule="evenodd" clip-rule="evenodd" d="M16.4753 1.65094C16.6736 1.87002 16.9553 1.995 17.2508 1.995C17.5463 1.995 17.828 1.87002 18.0263 1.65094L18.5263 1.09494C18.8227 0.766917 19.2934 0.660896 19.7018 0.830181C20.1102 0.999466 20.3679 1.40743 20.3453 1.84894L20.3063 2.59594C20.2906 2.89222 20.4014 3.18124 20.6112 3.39104C20.821 3.60084 21.11 3.71167 21.4063 3.69594L22.1533 3.65794C22.5948 3.63534 23.0028 3.89303 23.1721 4.30142C23.3414 4.70982 23.2353 5.18055 22.9073 5.47694L22.3513 5.97694C22.1322 6.17523 22.0072 6.45694 22.0072 6.75244C22.0072 7.04793 22.1322 7.32964 22.3513 7.52794L22.9073 8.02794C23.2353 8.32433 23.3414 8.79506 23.1721 9.20345C23.0028 9.61185 22.5948 9.86953 22.1533 9.84694L21.4063 9.80794C21.11 9.7922 20.821 9.90303 20.6112 10.1128C20.4014 10.3226 20.2906 10.6117 20.3063 10.9079L20.3453 11.6549C20.3679 12.0964 20.1102 12.5044 19.7018 12.6737C19.2934 12.843 18.8227 12.737 18.5263 12.4089L18.0263 11.8529C17.828 11.6339 17.5463 11.5089 17.2508 11.5089C16.9553 11.5089 16.6736 11.6339 16.4753 11.8529L15.9753 12.4089C15.6789 12.737 15.2082 12.843 14.7998 12.6737C14.3914 12.5044 14.1337 12.0964 14.1563 11.6549L14.1943 10.9079C14.21 10.6117 14.0992 10.3226 13.8894 10.1128C13.6796 9.90303 13.3906 9.7922 13.0943 9.80794L12.3473 9.84694C11.9071 9.86634 11.502 9.60753 11.3346 9.19993C11.1672 8.79232 11.2735 8.32352 11.6003 8.02794L12.1563 7.52794C12.3754 7.32964 12.5004 7.04793 12.5004 6.75244C12.5004 6.45694 12.3754 6.17523 12.1563 5.97694L11.6003 5.47694C11.2723 5.18055 11.1663 4.70982 11.3356 4.30142C11.5048 3.89303 11.9128 3.63534 12.3543 3.65794L13.1013 3.69594C13.3976 3.71167 13.6866 3.60084 13.8964 3.39104C14.1062 3.18124 14.217 2.89222 14.2013 2.59594L14.1633 1.84894C14.147 1.41215 14.4043 1.01136 14.8082 0.844307C15.2121 0.677256 15.6773 0.779237 15.9743 1.09994L16.4753 1.65094Z" stroke="#7996B9" stroke-width="1.5" stroke-linecap="round" stroke-linejoin="round"/>
<path fill-rule="evenodd" clip-rule="evenodd" d="M17.251 8.25098C18.0794 8.25098 18.751 7.5794 18.751 6.75098C18.751 5.92255 18.0794 5.25098 17.251 5.25098C16.4225 5.25098 15.751 5.92255 15.751 6.75098C15.751 7.5794 16.4225 8.25098 17.251 8.25098Z" stroke="#7996B9" stroke-width="1.5" stroke-linecap="round" stroke-linejoin="round"/>
</svg>
