<svg width="23" height="23" viewBox="0 0 23 23" fill="none" xmlns="http://www.w3.org/2000/svg">
<path fill-rule="evenodd" clip-rule="evenodd" d="M16.2004 21C18.8514 21 21.0004 18.851 21.0004 16.2C21.0004 13.5491 18.8514 11.4 16.2004 11.4C13.5494 11.4 11.4004 13.5491 11.4004 16.2C11.4004 18.851 13.5494 21 16.2004 21Z" stroke="#1563C1" stroke-width="2" stroke-linecap="round" stroke-linejoin="round"/>
<path d="M16.2002 13.8V18.6" stroke="#1563C1" stroke-linecap="round" stroke-linejoin="round"/>
<path d="M16.1999 18.6L14.3999 16.8" stroke="#1563C1" stroke-linecap="round" stroke-linejoin="round"/>
<path d="M16.2002 18.6L18.0002 16.8" stroke="#1563C1" stroke-linecap="round" stroke-linejoin="round"/>
<path d="M9 17.4H4.2C3.53726 17.4 3 16.8627 3 16.2V7.79997C3 7.13723 3.53726 6.59998 4.2 6.59998H16.2C16.8627 6.59998 17.4 7.13723 17.4 7.79997V8.99997" stroke="#1563C1" stroke-width="2" stroke-linecap="round" stroke-linejoin="round"/>
<path d="M17.0128 6.9176L14.756 3.5344C14.5339 3.20127 14.1604 3.00083 13.76 3H6.64001C6.2388 3.00003 5.86414 3.20056 5.64161 3.5344L3.38721 6.9176" stroke="#1563C1" stroke-width="2" stroke-linecap="round" stroke-linejoin="round"/>
<path d="M10.2002 3V6.6" stroke="#1563C1" stroke-width="2" stroke-linecap="round" stroke-linejoin="round"/>
</svg>
